<svg width="126" height="32" viewBox="0 0 126 32" fill="none" xmlns="http://www.w3.org/2000/svg">
<g clip-path="url(#clip0_3_12)">
<path d="M109.558 0H16.4501C6.70635 0 0 6.52087 0 16C0 25.4791 6.7043 32.0079 16.4501 32.0079H109.558C119.302 32.0079 126.008 25.4871 126.008 16.0079C126.008 6.52883 119.294 0 109.558 0Z" fill="#1B1B1B"/>
<path d="M112.506 13.6998C112.506 10.0398 110.214 8.02186 106.018 8.02186H98.6126C98.4692 8.01053 98.325 8.02925 98.1897 8.07677C98.0544 8.12428 97.9311 8.19947 97.8282 8.29728C97.7254 8.39508 97.6452 8.51321 97.5933 8.64369C97.5414 8.77418 97.5188 8.91398 97.5272 9.05367V22.9423C97.5272 23.5765 97.9605 23.9741 98.6126 23.9741H101.918C102.061 23.9855 102.205 23.9668 102.341 23.9192C102.476 23.8717 102.599 23.7965 102.702 23.6987C102.805 23.6009 102.885 23.4828 102.937 23.3523C102.989 23.2218 103.011 23.082 103.003 22.9423V19.493C103.001 19.4617 103.006 19.4303 103.017 19.4009C103.029 19.3715 103.046 19.3448 103.069 19.3226C103.092 19.3004 103.119 19.2832 103.15 19.2721C103.18 19.2611 103.212 19.2564 103.244 19.2584H104.137C104.428 22.3081 105.977 23.9741 108.89 23.9741H111.206C111.349 23.9855 111.493 23.9668 111.629 23.9192C111.764 23.8717 111.887 23.7965 111.99 23.6987C112.093 23.6009 112.173 23.4828 112.225 23.3523C112.277 23.2218 112.299 23.082 112.291 22.9423V20.8549C112.291 20.2207 111.858 19.8231 111.206 19.8231H109.83C109.131 19.8231 108.696 19.5189 108.624 18.9085C111.155 18.2525 112.506 16.5149 112.506 13.6998ZM105.728 15.4891H103.244C103.212 15.4911 103.18 15.4864 103.15 15.4754C103.119 15.4643 103.092 15.4471 103.069 15.4249C103.046 15.4027 103.029 15.376 103.017 15.3466C103.006 15.3172 103.001 15.2858 103.003 15.2545V12.6203C103.001 12.5889 103.006 12.5575 103.017 12.5281C103.029 12.4987 103.046 12.472 103.069 12.4498C103.092 12.4276 103.119 12.4104 103.15 12.3994C103.18 12.3883 103.212 12.3836 103.244 12.3857H105.728C106.789 12.3857 107.32 13.1372 107.32 13.9344C107.329 14.1401 107.294 14.3454 107.217 14.5372C107.14 14.7291 107.023 14.9033 106.874 15.0489C106.724 15.1945 106.545 15.3082 106.347 15.383C106.15 15.4577 105.939 15.4918 105.728 15.4831V15.4891Z" fill="white"/>
<path d="M88.411 12.0358H94.5859C94.7293 12.0471 94.8735 12.0284 95.0088 11.9809C95.1441 11.9334 95.2674 11.8582 95.3702 11.7604C95.4731 11.6626 95.5532 11.5444 95.6052 11.4139C95.6571 11.2835 95.6796 11.1437 95.6713 11.004V9.05765C95.6713 8.42345 95.2379 8.02584 94.5859 8.02584H83.9571C83.8137 8.01451 83.6695 8.03324 83.5342 8.08075C83.3989 8.12826 83.2757 8.20346 83.1728 8.30126C83.0699 8.39906 82.9898 8.51719 82.9379 8.64768C82.8859 8.77816 82.8634 8.91797 82.8718 9.05765V22.9463C82.8718 23.5805 83.3051 23.9781 83.9571 23.9781H94.9232C95.0665 23.9895 95.2108 23.9707 95.3461 23.9232C95.4814 23.8757 95.6046 23.8005 95.7075 23.7027C95.8104 23.6049 95.8905 23.4868 95.9424 23.3563C95.9943 23.2258 96.0169 23.086 96.0085 22.9463V21C96.0085 20.3658 95.5752 19.9682 94.9232 19.9682H88.411C88.3788 19.9702 88.3465 19.9656 88.3163 19.9545C88.286 19.9434 88.2586 19.9262 88.2358 19.904C88.2129 19.8818 88.1952 19.8551 88.1839 19.8257C88.1725 19.7963 88.1677 19.7649 88.1698 19.7336V18.0914C88.1677 18.0601 88.1725 18.0287 88.1839 17.9993C88.1952 17.9699 88.2129 17.9432 88.2358 17.921C88.2586 17.8988 88.286 17.8816 88.3163 17.8705C88.3465 17.8595 88.3788 17.8548 88.411 17.8569H93.476C93.6194 17.8682 93.7636 17.8495 93.8989 17.8019C94.0342 17.7544 94.1575 17.6792 94.2604 17.5814C94.3632 17.4836 94.4433 17.3655 94.4953 17.235C94.5472 17.1045 94.5697 16.9647 94.5614 16.825V15.0358C94.5614 14.4016 94.128 14.004 93.476 14.004H88.411C88.3788 14.006 88.3465 14.0014 88.3163 13.9903C88.286 13.9792 88.2586 13.962 88.2358 13.9398C88.2129 13.9176 88.1952 13.8909 88.1839 13.8615C88.1725 13.8321 88.1677 13.8007 88.1698 13.7694V12.2743C88.1674 12.2428 88.172 12.2111 88.1832 12.1813C88.1944 12.1516 88.2121 12.1246 88.2349 12.102C88.2577 12.0794 88.2852 12.0618 88.3156 12.0504C88.346 12.039 88.3785 12.034 88.411 12.0358V12.0358Z" fill="white"/>
<path d="M68.0058 8.02386C67.8624 8.01253 67.7182 8.03126 67.5829 8.07877C67.4476 8.12628 67.3243 8.20148 67.2214 8.29928C67.1185 8.39708 67.0384 8.51521 66.9865 8.6457C66.9346 8.77619 66.912 8.91599 66.9204 9.05567V22.9443C66.9204 23.5785 67.3537 23.9761 68.0058 23.9761H71.3109C71.4543 23.9875 71.5985 23.9688 71.7338 23.9212C71.8691 23.8737 71.9924 23.7985 72.0953 23.7007C72.1981 23.6029 72.2782 23.4848 72.3302 23.3543C72.3821 23.2238 72.4046 23.084 72.3963 22.9443V20.6919C72.3968 20.499 72.4758 20.3143 72.616 20.1779C72.7562 20.0416 72.9461 19.9647 73.1444 19.9642H74.9043C79.1006 19.9642 81.3919 17.8529 81.3919 13.9821C81.3919 10.1113 79.1006 8.0179 74.9043 8.0179L68.0058 8.02386ZM76.2063 14.1471C76.2063 15.2266 75.4827 15.9066 74.3667 15.9066H72.6293C72.5971 15.9086 72.5648 15.9039 72.5345 15.8929C72.5043 15.8818 72.4769 15.8646 72.4541 15.8424C72.4312 15.8202 72.4135 15.7935 72.4022 15.7641C72.3908 15.7347 72.386 15.7033 72.3881 15.672V12.6223C72.386 12.5909 72.3908 12.5595 72.4022 12.5301C72.4135 12.5007 72.4312 12.4741 72.4541 12.4518C72.4769 12.4296 72.5043 12.4124 72.5345 12.4014C72.5648 12.3903 72.5971 12.3856 72.6293 12.3877H74.3667C75.4827 12.3877 76.2063 13.0676 76.2063 14.1471Z" fill="white"/>
<path d="M60.6004 23.9761H63.6153C63.7587 23.9875 63.9029 23.9687 64.0382 23.9212C64.1735 23.8737 64.2968 23.7985 64.3996 23.7007C64.5025 23.6029 64.5826 23.4848 64.6346 23.3543C64.6865 23.2238 64.709 23.084 64.7007 22.9443V9.05566C64.7007 8.42146 64.2673 8.02385 63.6153 8.02385H59.3454C58.6218 8.02385 58.1394 8.37574 57.8737 9.1491L56.4756 13.1213C56.4399 13.2692 56.3538 13.401 56.2314 13.4953C56.1089 13.5896 55.9573 13.641 55.8011 13.641C55.6449 13.641 55.4933 13.5896 55.3709 13.4953C55.2484 13.401 55.1623 13.2692 55.1266 13.1213L53.7285 9.14512C53.4628 8.37176 52.9804 8.01987 52.2568 8.01987H47.9869C47.8435 8.00855 47.6993 8.02727 47.564 8.07478C47.4287 8.1223 47.3054 8.19749 47.2026 8.29529C47.0997 8.39309 47.0196 8.51122 46.9676 8.64171C46.9157 8.7722 46.8932 8.912 46.9015 9.05168V22.9404C46.9015 23.5745 47.3349 23.9722 47.9869 23.9722H51.0018C51.1452 23.9835 51.2894 23.9648 51.4247 23.9173C51.56 23.8697 51.6833 23.7945 51.7861 23.6967C51.889 23.5989 51.9691 23.4808 52.0211 23.3503C52.073 23.2198 52.0955 23.08 52.0872 22.9404V15.3201C52.0872 15.2028 52.1362 15.1551 52.2078 15.1551C52.2418 15.1564 52.2745 15.1686 52.3007 15.1898C52.327 15.211 52.3453 15.24 52.3529 15.2724L54.0903 20.1511C54.3069 20.7853 54.6442 21.0417 55.1511 21.0417H56.4531C56.96 21.0417 57.2973 20.7833 57.514 20.1511L59.2514 15.2724C59.2586 15.2399 59.2769 15.2107 59.3032 15.1894C59.3295 15.1682 59.3623 15.1561 59.3965 15.1551C59.468 15.1551 59.5171 15.2028 59.5171 15.3201V22.9443C59.5088 23.0838 59.5313 23.2235 59.5831 23.3538C59.6349 23.4841 59.7148 23.6021 59.8174 23.6999C59.9201 23.7977 60.0431 23.8729 60.1781 23.9206C60.3132 23.9682 60.4572 23.9872 60.6004 23.9761V23.9761Z" fill="white"/>
<path d="M34.7479 8.02384H31.2732C31.1298 8.01251 30.9856 8.03124 30.8503 8.07875C30.7149 8.12626 30.5917 8.20146 30.4888 8.29926C30.3859 8.39706 30.3058 8.51519 30.2539 8.64568C30.202 8.77616 30.1794 8.91597 30.1878 9.05565V17.5487C30.1878 21.9225 32.7694 24.3081 37.5687 24.3081C42.368 24.3081 44.9495 21.9225 44.9495 17.5487V9.05565C44.9495 8.42146 44.5162 8.02384 43.8642 8.02384H40.3894C40.246 8.01251 40.1018 8.03124 39.9665 8.07875C39.8312 8.12626 39.7079 8.20146 39.605 8.29926C39.5022 8.39706 39.422 8.51519 39.3701 8.64568C39.3182 8.77616 39.2956 8.91597 39.304 9.05565V17.5706C39.304 18.7634 38.6295 19.5407 37.5666 19.5407C36.5037 19.5407 35.8292 18.7674 35.8292 17.5706V9.05565C35.8375 8.91633 35.8151 8.77689 35.7634 8.64671C35.7117 8.51652 35.632 8.3986 35.5295 8.30087C35.4271 8.20313 35.3044 8.12785 35.1696 8.08006C35.0348 8.03228 34.891 8.01311 34.7479 8.02384V8.02384Z" fill="white"/>
<path d="M28.3543 12.2225C28.3543 9.66587 26.4248 8.02372 23.3854 8.02372H14.6534C14.51 8.01239 14.3658 8.03112 14.2305 8.07863C14.0952 8.12614 13.9719 8.20134 13.8691 8.29914C13.7662 8.39694 13.6861 8.51507 13.6342 8.64556C13.5822 8.77604 13.5597 8.91585 13.568 9.05553V22.9442C13.568 23.5784 14.0014 23.976 14.6534 23.976H23.4814C26.762 23.976 28.8837 22.1868 28.8837 19.4492C28.8837 17.5724 27.9905 16.2345 26.3021 15.5307C27.6532 15.0138 28.3543 13.8647 28.3543 12.2225ZM18.9703 11.9879C18.9682 11.9564 18.973 11.9248 18.9845 11.8953C18.996 11.8657 19.0139 11.839 19.037 11.8167C19.06 11.7945 19.0877 11.7773 19.1182 11.7664C19.1487 11.7554 19.1812 11.751 19.2136 11.7533H21.8912C22.7354 11.7533 23.2668 12.2702 23.2668 13.0436C23.2668 13.817 22.7354 14.3339 21.8912 14.3339H19.2136C19.1813 14.3359 19.149 14.3312 19.1188 14.3202C19.0886 14.3091 19.0612 14.2919 19.0383 14.2697C19.0155 14.2475 18.9978 14.2208 18.9864 14.1914C18.9751 14.162 18.9703 14.1306 18.9724 14.0993L18.9703 11.9879ZM22.1303 20.2464H19.2136C19.1813 20.2484 19.149 20.2438 19.1188 20.2327C19.0886 20.2216 19.0612 20.2044 19.0383 20.1822C19.0155 20.16 18.9978 20.1333 18.9864 20.1039C18.9751 20.0745 18.9703 20.0431 18.9724 20.0118V17.8528C18.9703 17.8214 18.9751 17.79 18.9864 17.7606C18.9978 17.7312 19.0155 17.7045 19.0383 17.6823C19.0612 17.6601 19.0886 17.6429 19.1188 17.6318C19.149 17.6208 19.1813 17.6161 19.2136 17.6182H22.1324C22.9766 17.6182 23.508 18.1351 23.508 18.9323C23.508 19.7295 22.9745 20.2464 22.1303 20.2464V20.2464Z" fill="white"/>
</g>
<defs>
<clipPath id="clip0_3_12">
<rect width="126" height="32" fill="white"/>
</clipPath>
</defs>
</svg>
